<?xml version="1.0" encoding="utf-8"?>
<!-- Generator: Adobe Illustrator 20.0.0, SVG Export Plug-In . SVG Version: 6.00 Build 0)  -->
<svg version="1.1" id="Layer_1" xmlns="http://www.w3.org/2000/svg" xmlns:xlink="http://www.w3.org/1999/xlink" x="0px" y="0px"
	 viewBox="0 0 405 503" style="enable-background:new 0 0 405 503;" xml:space="preserve">
<style type="text/css">
	.st0{fill:#4D4D4D;}
</style>
<g>
	<path class="st0" d="M397.1,448.7c0,0,0,0.2,0,0.6c0,0.4,0,1-0.1,1.9c-0.2,1.7-0.6,4.3-1.8,7.3c-1.3,3.1-3.5,6.6-7.1,9.9
		c-3.5,3.2-8.2,6.2-13.8,8.7c-11.2,5.1-25.7,8.6-42.4,11.5c-8.4,1.4-17.3,2.6-26.8,3.6c-9.5,0.9-19.4,1.7-29.8,2.2
		c-20.8,1-43.3,1-67,0.3c-23.6-0.6-48.6-1.3-74.5-2.7c-6.5-0.4-13-0.8-19.6-1.3c-6.6-0.6-13.2-1.2-19.9-2c-3.3-0.4-6.7-0.9-10-1.4
		c-3.3-0.5-6.7-1.1-10-1.8c-6.7-1.4-13.3-3.1-19.8-5.6c-6.5-2.5-12.8-5.6-18.5-9.9c-5.7-4.2-10.7-9.7-14.3-15.9
		c-3.7-6.2-6.1-13.2-7.5-20.2c-0.7-3.5-1.2-7.1-1.5-10.6c-0.1-1.8-0.3-3.6-0.3-5.3l0-1.3l0-0.7c0,0,0-0.4,0-0.5l0-0.3l0-1.3l0.1-1.6
		c0-0.5,0.1-1,0.2-1.5c0.1-0.5,0.2-1,0.2-1.5c0.2-0.9,0.4-1.9,0.7-2.8c0.5-1.9,1.3-3.7,2-5.4c1.6-3.5,3.6-6.7,5.9-9.6
		c4.5-5.9,9.8-10.9,15.5-15.4c5.7-4.4,11.7-8.3,17.9-11.7c6.2-3.4,12.6-6.3,19.1-8.9c6.5-2.6,13.1-4.8,19.7-6.8c6.6-2,13.3-3.6,20-5
		c13.4-2.8,26.8-4.4,40-5.1c13.2-0.8,26.3-0.5,39,0.6c6.4,0.6,12.6,1.3,18.8,2.3c1.5,0.3,3.1,0.5,4.6,0.8c1.5,0.3,3,0.5,4.5,0.8
		c3,0.5,5.9,1.1,8.8,1.7c11.9,2.4,23.2,5,34.1,8c10.9,3,21.3,6.4,31.1,10c9.8,3.7,19.1,7.7,27.7,11.8c8.6,4.2,16.6,8.5,23.9,13
		c14.5,8.9,26.4,18.1,34.7,27.1c8.4,8.9,13.1,17.6,14.8,24c0.2,0.8,0.4,1.5,0.6,2.3c0.2,0.7,0.2,1.4,0.3,2c0.1,0.6,0.2,1.2,0.3,1.7
		c0.1,0.5,0.1,1,0.1,1.4C397.1,447.7,397.1,448.6,397.1,448.7L397.1,448.7z M395.7,448.6c0,0,0-0.8-0.1-2.5c0-0.4,0-0.9-0.1-1.4
		c-0.1-0.5-0.2-1-0.3-1.6c-0.1-0.6-0.2-1.2-0.4-1.9c-0.2-0.7-0.4-1.4-0.6-2.2c-1.7-6.1-6.5-14.4-15.1-22.7
		c-8.6-8.3-20.9-16.3-35.9-23.4c-15-7.1-32.7-13.4-52.3-19c-9.8-2.8-20.1-5.4-30.8-8c-2.7-0.6-5.4-1.2-8.1-1.8
		c-2.7-0.6-5.5-1.2-8.3-1.8c-2.8-0.6-5.6-1.1-8.4-1.7c-2.8-0.6-5.7-1-8.5-1.6c-2.8-0.5-5.8-1-8.8-1.5c-1.5-0.2-2.9-0.5-4.4-0.7
		c-1.5-0.2-2.9-0.4-4.4-0.7c-5.9-0.9-11.8-1.6-17.9-2.1c-12.1-1.1-24.5-1.5-37.1-1.1c-12.6,0.4-25.4,1.7-38.1,3.9
		c-12.8,2.2-25.5,5.5-37.9,10c-6.2,2.2-12.3,4.8-18.2,7.7c-5.9,2.9-11.7,6.1-17.1,9.8c-5.4,3.7-10.5,7.9-14.6,12.7
		c-2.1,2.4-3.9,5-5.4,7.7c-0.7,1.4-1.4,2.7-1.9,4.2c-0.3,0.7-0.5,1.4-0.7,2.1c-0.1,0.4-0.2,0.7-0.3,1.1c-0.1,0.4-0.2,0.7-0.2,1
		l-0.2,1l-0.1,1.3l0,0.3c0,0.1,0,0,0,0.2l0,0.6l0,1.3c-0.1,1.7,0,3.3-0.1,5c0.1,3.3,0.3,6.6,0.7,9.9c1,6.5,2.7,12.9,5.8,18.7
		c3.1,5.8,7.4,10.8,12.5,14.9c5.1,4.1,11.1,7.2,17.3,9.5c12.4,4.7,25.8,6.7,38.9,7.8c13.2,1,26.3,1,39.1,0.7
		c25.8-0.6,50.8-2.2,74.6-2.1c23.7,0.1,46,0.5,66.6,0.8c10.3,0.1,20.2,0.3,29.5,0.2c9.4,0,18.3-0.3,26.6-0.8
		c16.6-1,31.1-3.3,42.2-7.7c5.5-2.2,10.2-4.8,13.6-7.8c3.5-3,5.7-6.3,6.9-9.2c1.2-2.9,1.6-5.3,1.8-6.9c0.1-0.8,0.1-1.4,0.1-1.9
		C395.7,448.8,395.7,448.6,395.7,448.6L395.7,448.6z"/>
</g>
<g>
	<path class="st0" d="M299.1,349.7c0,0,0,0.1-0.1,0.4c-0.1,0.2-0.2,0.6-0.4,1.1c-0.5,1-1.4,2.4-3.1,3.6c-1.8,1.1-4.2,1.9-7.1,2.2
		c-2.9,0.3-6.1,0.3-9.8,0c-7.3-0.6-16-2-25.9-3.5c-5-0.8-10.2-1.6-15.8-2.5c-5.5-0.9-11.3-1.8-17.4-2.8c-12-2-24.9-4.2-38.6-6
		c-0.9-0.1-1.7-0.2-2.6-0.3l-1.4-0.2l-1.3-0.2c-1.8-0.3-3.5-0.5-5.4-0.9c-3.8-0.7-7.5-1.6-11.2-2.6c-7.4-2.1-14.8-5.1-21.8-8.7
		c-7.1-3.7-13.8-8.1-20.2-13c-6.4-5-12.4-10.5-18-16.4c-5.7-5.9-10.9-12.3-16.1-18.6c-2.6-3.2-5.2-6.3-7.9-9.3l-1-1.1l-0.5-0.6
		l-0.1-0.1l-0.2-0.2l-0.3-0.3c-0.3-0.3-0.8-1-1.2-1.6c-0.4-0.6-0.7-1.2-1-2c-0.6-1.5-0.8-3.5-0.2-5.3c0.6-1.8,1.7-3.2,2.7-4.2
		c2.2-2,4.4-3,6.5-3.9c2.2-0.9,4.3-1.5,6.4-2.1c4.3-1.1,8.5-1.7,12.7-2.3c8.4-0.9,16.8-1.2,25.1-1c16.5,0.5,32.6,2.2,48.1,5
		c7.7,1.4,15.3,3,22.6,5c1.8,0.5,3.6,1,5.5,1.5l0.7,0.2l0.8,0.2l1.3,0.4c0.9,0.3,1.7,0.5,2.6,0.8l1.3,0.4l1.3,0.5
		c0.9,0.3,1.8,0.6,2.7,1c1.8,0.6,3.5,1.3,5.2,2c6.8,2.7,13.2,5.7,19.3,8.9c6.1,3.2,11.6,6.8,16.8,10.5c5.2,3.7,9.8,7.6,14.2,11.4
		c4.3,3.9,8.1,7.8,11.6,11.6c6.9,7.6,12.1,14.8,15.8,21.2c1.9,3.2,3.2,6.2,4.2,8.8c1.1,2.7,1.5,5.1,1.8,7.1c0.2,2,0.1,3.6-0.1,4.6
		C299.2,349.1,299.1,349.7,299.1,349.7L299.1,349.7z M297.7,349.3c0,0,0.1-0.5,0.3-1.4c0.1-0.9,0.2-2.3,0-4.2
		c-0.3-1.8-0.8-4.1-2-6.6c-1.1-2.5-2.7-5.2-4.7-8.1c-4.1-5.7-10.1-12-17.9-18c-7.7-6.1-17.1-11.9-27.7-17.5
		c-10.6-5.6-22.2-11.2-35-15.7c-1.6-0.6-3.2-1.2-4.8-1.7c-0.8-0.3-1.6-0.5-2.4-0.8l-1.2-0.4l-1.3-0.4c-0.9-0.3-1.7-0.5-2.6-0.8
		l-1.3-0.4l-0.5-0.2l-0.6-0.2c-1.7-0.5-3.4-1-5.2-1.4c-7-1.9-14.2-3.6-21.5-5.2c-14.7-3.2-30.2-5.7-45.9-6.9
		c-3.9-0.3-7.9-0.6-11.8-0.7c-4-0.2-7.9-0.3-11.9-0.2c-3.9,0-7.9,0.2-11.6,0.7c-1.9,0.3-3.7,0.6-5.4,1c-1.7,0.4-3.3,1.1-4.3,1.8
		c-0.5,0.3-0.7,0.6-0.8,0.8c-0.1,0.1-0.2,0.3-0.1,0.7c0,0.2,0.2,0.5,0.3,0.8c0.1,0.3,0.2,0.4,0.5,0.9l0.2,0.3c0,0,0.2,0.2,0,0.1
		l0.1,0.2l0.5,0.6l0.9,1.3c2.5,3.4,4.8,6.8,7.1,10.1c4.7,6.7,9.6,13.1,15,18.9c5.4,5.8,11.4,11,17.9,15.3
		c6.5,4.3,13.3,7.7,20.3,10.2c7,2.5,14.1,4.2,21.2,5.4c3.5,0.6,7,1,10.4,1.3c1.6,0.2,3.5,0.3,5.3,0.4c1.8,0.1,3.5,0.3,5.3,0.4
		c14.4,1.2,27.8,3.9,39.7,7.3c12,3.3,22.7,7.3,32.2,10.4c9.5,3.2,17.8,5.8,24.8,7c3.5,0.6,6.6,0.9,9.3,0.7c2.7-0.2,4.9-0.8,6.4-1.7
		c1.5-0.9,2.2-2.1,2.6-2.9c0.2-0.4,0.3-0.7,0.4-1C297.7,349.4,297.8,349.3,297.7,349.3L297.7,349.3z"/>
</g>
<g>
	<path class="st0" d="M270,161.3c0,0,0.1,0.5,0.3,1.5c0.1,0.5,0.3,1.1,0.4,1.8c0.1,0.4,0.2,0.8,0.3,1.2c0.1,0.4,0.1,0.9,0.2,1.4
		c0.1,1,0.3,2.1,0.5,3.3c0.1,1.2,0.2,2.6,0.2,4c-0.1,2.9-0.3,6.3-1.5,9.9c-1.2,3.6-3.4,7.4-6.7,10.8c-3.3,3.4-7.5,6.3-12.3,8.7
		c-9.6,4.8-21.3,7.8-34,9.5c-12.7,1.7-26.5,2.1-40.9,1.6c-7.2-0.2-14.5-0.7-22.1-1.3c-7.6-0.6-15.3-1.5-23.1-2.5
		c-7.8-1.1-15.8-2.3-23.8-3.7c-8-1.4-16.1-3-24.1-5.1c-4-1.1-8-2.3-12-3.8c-4-1.5-7.9-3.3-11.6-5.5c-3.8-2.2-7.4-5-10.3-8.8
		c-2.9-3.7-4.9-8.4-5.3-13.2c-0.5-4.8,0.2-9.7,1.7-14l0.2-0.8l0.3-0.9l0.5-1.5c0.4-1,1-2.2,1.5-3.3c1-2.1,2.2-4.1,3.4-6
		c2.6-3.8,5.5-7.2,8.7-10.4c3.2-3.1,6.7-5.9,10.3-8.4c3.6-2.5,7.4-4.7,11.2-6.6c3.8-2,7.7-3.7,11.7-5.3c2-0.8,4-1.5,5.9-2.2
		c2-0.6,4-1.3,6-1.9c4-1.2,8-2.2,12-3c16-3.4,31.7-4.2,46.5-3.5c0.9,0,1.8,0.1,2.7,0.1c0.9,0.1,1.9,0.1,2.8,0.2
		c0.9,0.1,1.8,0.1,2.8,0.2c0.9,0.1,1.8,0.2,2.7,0.3c1.8,0.2,3.6,0.4,5.3,0.6c1.8,0.2,3.5,0.5,5.2,0.7c6.9,1.1,13.5,2.6,19.7,4.4
		c6.2,1.8,12,4.1,17.4,6.5c5.4,2.4,10.3,5.1,14.8,7.8c8.9,5.5,15.9,11.4,20.9,17c2.5,2.8,4.5,5.4,6.1,7.8c1.6,2.4,2.7,4.6,3.5,6.4
		c0.4,0.9,0.7,1.7,1,2.4c0.3,0.7,0.5,1.3,0.6,1.8C269.8,160.8,270,161.3,270,161.3L270,161.3z M268.6,161.7c0,0-0.2-0.5-0.5-1.4
		c-0.2-0.5-0.3-1.1-0.6-1.7c-0.3-0.7-0.6-1.5-1-2.3c-0.4-0.9-0.9-1.8-1.5-2.8c-0.6-1-1.3-2.1-2.1-3.2c-1.6-2.2-3.8-4.6-6.4-7.1
		c-5.3-4.9-12.7-9.5-21.9-13.2c-4.6-1.9-9.6-3.5-15-4.9c-5.3-1.4-11.1-2.5-17-3.5c-6-1-12.2-1.7-18.7-2.3c-0.8-0.1-1.6-0.1-2.4-0.2
		c-0.8-0.1-1.6-0.1-2.5-0.2c-1.7-0.1-3.3-0.3-5-0.3c-0.8,0-1.7-0.1-2.5-0.1c-0.8,0-1.7-0.1-2.5-0.1c-0.8,0-1.7-0.1-2.5-0.1
		c-0.9,0-1.8,0-2.7,0c-13.9-0.2-28.5,0.6-43.2,3.1c-7.4,1.3-14.8,3-22,5.5c-3.6,1.2-7.2,2.6-10.7,4.2c-3.5,1.6-6.9,3.4-10.1,5.4
		c-3.3,2-6.4,4.2-9.3,6.6c-2.9,2.4-5.7,5-8,7.9c-1.2,1.4-2.3,2.9-3.3,4.5l-0.7,1.1l-0.3,0.6c-0.1,0.2-0.2,0.4-0.3,0.6l-0.7,1.4
		l-0.2,0.3l-0.1,0.2c0,0.1,0.1-0.1,0,0l-0.3,0.6c-1.6,3.4-2.5,6.9-2.6,10.4c-0.1,3.5,0.9,6.9,2.8,10c2,3.1,4.8,5.8,8,8
		c3.2,2.3,6.8,4.1,10.5,5.7c3.7,1.5,7.6,2.8,11.4,3.9c7.8,2.1,15.8,3.5,23.7,4.3c7.9,0.8,15.8,1.1,23.6,1.1c7.8,0,15.4-0.2,22.9-0.5
		c7.5-0.3,14.9-0.5,22-0.6c14.3-0.2,27.6-0.1,39.8-0.5c6.1-0.2,11.9-0.5,17.4-1.1c5.5-0.6,10.6-1.5,15.3-2.9c4.6-1.4,8.7-3.3,12-5.9
		c1.6-1.3,3-2.7,4.2-4.2c0.3-0.4,0.6-0.8,0.8-1.1c0.3-0.4,0.6-0.7,0.7-1.2c0.4-0.8,0.9-1.6,1.2-2.4c0.3-0.8,0.6-1.6,0.9-2.4
		c0.3-0.8,0.4-1.6,0.6-2.3c0.4-1.5,0.4-3,0.6-4.4c0.1-1.4,0-2.7,0-3.8c0-1.2-0.3-2.2-0.4-3.2c-0.1-0.5-0.1-0.9-0.2-1.3
		c-0.1-0.4-0.2-0.8-0.3-1.2c-0.2-0.7-0.3-1.3-0.4-1.8C268.7,162.2,268.6,161.6,268.6,161.7L268.6,161.7z"/>
</g>
<g>
	<path class="st0" d="M295.9,58.1c0,0,0.3,0.4,0.5,1.6c0.2,1.1,0.2,2.9-0.7,4.8c-1.7,3.8-5.8,8.2-11.7,12.6
		c-5.9,4.5-13.5,9.3-22.7,14.2c-9.2,4.8-19.9,9.7-32.1,13.5c-6.1,1.9-12.6,3.6-19.4,4.8c-3.4,0.7-6.9,1.2-10.4,1.7
		c-3.5,0.4-7.1,0.8-10.8,1c-14.6,1-30.1,0.2-45.8-1.9c-7.9-1-15.8-2.3-23.8-3.9c-8-1.6-16-3.5-24-6c-4-1.3-7.9-2.7-11.8-4.4
		c-2-0.8-3.9-1.8-5.8-2.8c-1.9-1-3.8-2.1-5.6-3.4c-1.8-1.2-3.6-2.7-5.3-4.3c-1.7-1.7-3.2-3.6-4.3-6.1c-0.5-1.2-1-2.6-1.1-4.1
		l-0.1-1.1c0-0.4,0-0.7,0-1.2l0.1-1.6c0.1-1,0.2-2.2,0.3-3.2c0.1-1.1,0.2-2.2,0.4-3.2c0.6-4.3,1.4-8.6,2.6-12.9
		c1.2-4.3,2.7-8.5,4.6-12.5c2-4,4.3-8,7.2-11.6c2.9-3.6,6.2-6.9,9.8-9.6c7.3-5.6,15.9-9.2,24.5-11.2c8.6-2,17.2-2.4,25.5-2
		c8.3,0.4,16.3,1.6,23.9,3.3c3.8,0.8,7.6,1.8,11.2,2.9c1.8,0.5,3.6,1.1,5.4,1.6c0.9,0.3,1.8,0.6,2.7,0.9c0.8,0.3,1.7,0.6,2.5,0.8
		c3.3,1.1,6.6,2.2,9.9,3.2c3.3,1,6.5,2,9.7,2.9c6.4,1.8,12.5,3.5,18.5,5.2c12,3.3,23.1,6.3,32.8,9c9.9,2.7,18.6,5.2,25.5,8.1
		c6.9,2.8,11.8,6.6,14.3,9.8c1.3,1.6,2.1,2.9,2.6,3.8C295.6,57.6,295.9,58.1,295.9,58.1L295.9,58.1z M294.6,58.7
		c0,0-0.2-0.5-0.7-1.3c-0.5-0.8-1.3-2.1-2.5-3.5c-1.2-1.4-3-3-5.3-4.4c-2.3-1.4-5.3-2.7-8.7-3.7c-3.4-1-7.3-1.8-11.6-2.4
		c-4.3-0.6-9-1-14.1-1.4c-5.1-0.4-10.5-0.8-16.2-1.3c-5.7-0.5-11.8-1.2-18-2.2c-6.3-1-12.8-2.2-19.5-3.8c-3.3-0.8-6.7-1.6-10.2-2.6
		c-3.4-0.9-6.9-2-10.4-3c-1.7-0.5-3.4-1.1-5.1-1.6c-1.7-0.5-3.4-1-5.1-1.5c-3.4-1-6.9-1.9-10.4-2.7c-7-1.6-14.2-3-21.5-3.5
		c-7.3-0.6-14.7-0.5-21.9,0.8c-7.1,1.3-14,3.9-19.9,8c-5.9,4.1-11,9.6-14.8,16.2c-3.8,6.6-6.6,14-8.4,21.8c-0.2,1-0.4,2-0.7,2.9
		c-0.2,1-0.4,1.9-0.6,3L68.8,74l-0.1,0.4c0,0.1,0,0.3,0,0.4c0,0.6,0.1,1.3,0.3,2c0.4,1.4,1.3,2.9,2.4,4.3c1.1,1.4,2.5,2.7,4,4
		c1.5,1.2,3.1,2.4,4.8,3.5c1.7,1.1,3.4,2,5.2,3c3.6,1.8,7.3,3.4,11.1,4.7c15.3,5.3,31.4,7.1,46.8,7.1c7.7,0,15.3-0.4,22.7-1.1
		c3.7-0.3,7.3-0.7,10.9-1c1.8-0.2,3.6-0.4,5.4-0.6c1.8-0.2,3.5-0.4,5.2-0.6c13.9-1.7,26.9-3.8,38.9-6.3c12-2.4,23-5,32.5-8.1
		c9.5-3.1,17.6-6.7,23.7-10.6c6.1-3.8,10.2-7.9,11.7-11.3c0.8-1.7,0.8-3.1,0.6-3.9C294.9,59.2,294.6,58.7,294.6,58.7L294.6,58.7z"/>
</g>
<g>
	<path class="st0" d="M217.9,233.2c0,0,0.2,0.2,0.4,0.7c0.1,0.2,0.3,0.5,0.5,0.9c0.2,0.4,0.5,0.9,0.6,1.4c0.2,0.6,0.2,1.2,0.2,2
		c-0.1,0.4-0.1,0.7-0.2,1.1c-0.2,0.4-0.3,0.7-0.5,1.1c-0.8,1.5-2.3,2.8-3.9,3.9c-3.4,2.3-7.8,4.4-13,6.4c-2.6,1-5.4,2-8.4,2.9
		c-3,0.9-6.2,1.7-9.5,2.4c-6.7,1.3-14,1.9-21.7,1.6c-3.9-0.1-7.8-0.5-11.8-1c-4-0.5-8.1-1.2-12.2-1.9c-4.1-0.7-8.3-1.5-12.6-2.2
		c-4.2-0.7-8.5-1.5-12.9-2.4c-4.3-1-8.7-2-13.1-4.2c-2.2-1.1-4.3-2.4-6.2-4.4c-1.9-1.9-3.3-4.6-3.9-7.4c-0.2-0.7-0.3-1.4-0.3-2.1
		l-0.1-0.5l0-0.1c0-0.5,0-0.2,0-0.3l0-0.2l0-0.8l0-0.4l0-0.6l0.1-1.2c0.1-0.8,0.3-1.5,0.5-2.2c0.8-2.9,2.5-5.6,4.5-7.6
		c2-2.1,4.2-3.6,6.5-4.9c2.3-1.3,4.5-2.2,6.8-3c4.6-1.6,9.1-2.6,13.5-3.3c4.4-0.8,8.7-1.3,13-1.7c4.2-0.4,8.4-0.5,12.4-0.6
		c2,0,4,0,6,0c1,0,2,0.1,2.9,0.1c0.5,0,1,0,1.6,0.1l1.4,0.1c0.9,0,1.9,0.1,2.8,0.2c0.9,0.1,1.8,0.1,2.8,0.2c1.9,0.2,3.8,0.4,5.7,0.6
		c1.8,0.3,3.6,0.6,5.4,0.9c1.8,0.4,3.5,0.8,5.2,1.3c6.7,1.9,12.7,4.6,17.6,7.5c4.9,2.9,8.8,5.9,11.7,8.6c3,2.6,4.9,5,6.3,6.6
		C217.2,232.3,217.9,233.2,217.9,233.2L217.9,233.2z M216.7,234.1c0,0-0.7-0.8-2-2.4c-1.4-1.4-3.5-3.6-6.7-5.5
		c-3.2-2-7.4-3.8-12.4-4.8c-5-1.1-10.8-1.4-17.1-1.6c-3.2-0.1-6.4-0.1-9.8-0.2c-1.7,0-3.4,0-5.1-0.1c-0.8,0-1.8,0-2.7,0
		c-0.9,0-1.9,0-2.8,0c-3.7,0-7.5,0-11.3,0.1c-3.9,0-7.8,0-11.8,0.1c-7.9,0.2-16.2,0.5-23.7,2.3c-3.7,0.9-7.3,2.1-9.8,3.8
		c-1.3,0.9-2.3,1.8-3,3c-0.1,0.3-0.4,0.7-0.5,0.9c-0.1,0.1-0.1,0.3-0.2,0.4l-0.1,0.2l-0.1,0.4l-0.1,0.8l0,0.2c0-0.1,0,0.3,0-0.1
		l0,0.1l0,0.3c0,0.4-0.1,0.8-0.1,1.2c0,1.6,0.3,3.1,1.2,4.5c0.9,1.4,2.3,2.7,3.9,3.9c3.3,2.2,7.3,3.6,11.4,4.6
		c8.2,1.9,16.8,1.9,24.9,1.3c4.1-0.3,8.1-0.7,12-1.1c4-0.3,7.7-0.6,11.4-0.8c3.7-0.2,7.3-0.3,10.7-0.4c3.5-0.1,6.8-0.1,10,0
		c6.4,0,12.4,0.3,17.6,0c5.2-0.2,9.8-1.1,13.1-2.6c1.6-0.8,3-1.7,3.7-2.8c0.8-1.1,0.8-2.2,0.6-3c-0.1-0.4-0.3-0.8-0.4-1.1
		c-0.1-0.3-0.3-0.6-0.5-0.8C216.9,234.2,216.7,234,216.7,234.1L216.7,234.1z"/>
</g>
</svg>
